<?xml version="1.0" encoding="utf-8"?>
<!-- Generator: Adobe Illustrator 16.0.0, SVG Export Plug-In . SVG Version: 6.00 Build 0)  -->
<!DOCTYPE svg PUBLIC "-//W3C//DTD SVG 1.1//EN" "http://www.w3.org/Graphics/SVG/1.1/DTD/svg11.dtd">
<svg version="1.1" id="Layer_1" xmlns="http://www.w3.org/2000/svg" xmlns:xlink="http://www.w3.org/1999/xlink" x="0px" y="0px"
	 width="800px" height="320px" viewBox="0 0 800 320" enable-background="new 0 0 800 320" xml:space="preserve">
<g>
	<rect x="36.775" y="52.708" width="9.5" height="54.292"/>
	<polygon points="44.775,80.125 84.525,52.875 84.525,107 	"/>
	<polygon points="83.275,80.125 123.025,52.875 123.025,107 	"/>
</g>
<g>
	<rect x="433.483" y="52.708" width="9.5" height="54.292"/>
	<polygon points="434.983,79.583 395.233,106.833 395.233,52.708 	"/>
	<polygon points="396.483,79.583 356.733,106.833 356.733,52.708 	"/>
</g>
<rect x="520.4" y="47.625" width="80" height="10.75"/>
<rect x="520.4" y="101.583" width="80" height="10.75"/>
<rect x="520.4" y="74.75" width="80" height="10.75"/>
<rect x="213.578" y="46" width="19.447" height="68.125"/>
<rect x="245.9" y="46" width="19.614" height="68.125"/>
<polygon points="744.649,79.236 694.566,113.57 694.566,45.375 "/>
<g>
	<rect x="36.775" y="213.708" fill="#BCBEC0" width="9.5" height="54.292"/>
	<polygon fill="#BCBEC0" points="44.775,241.125 84.525,213.875 84.525,268 	"/>
	<polygon fill="#BCBEC0" points="83.275,241.125 123.025,213.875 123.025,268 	"/>
</g>
<g>
	<rect x="433.483" y="213.708" fill="#BCBEC0" width="9.5" height="54.292"/>
	<polygon fill="#BCBEC0" points="434.983,240.583 395.233,267.833 395.233,213.708 	"/>
	<polygon fill="#BCBEC0" points="396.483,240.583 356.733,267.833 356.733,213.708 	"/>
</g>
<rect x="520.4" y="208.625" fill="#BCBEC0" width="80" height="10.75"/>
<rect x="520.4" y="262.583" fill="#BCBEC0" width="80" height="10.75"/>
<rect x="520.4" y="235.75" fill="#BCBEC0" width="80" height="10.75"/>
<rect x="213.578" y="207" fill="#BCBEC0" width="19.447" height="68.125"/>
<rect x="245.9" y="207" fill="#BCBEC0" width="19.614" height="68.125"/>
<polygon fill="#BCBEC0" points="744.649,240.236 694.566,274.57 694.566,206.375 "/>
</svg>
